<?xml version="1.0" encoding="UTF-8"?>
<svg xmlns="http://www.w3.org/2000/svg" viewBox="0 0 50 50">
  <path fill='hsla(0deg, 0%, 80%, 0.25)' d="m28.88,33.46c-1.03.88-2.4,1.38-3.87,1.38s-2.83-.49-3.87-1.38l-9.93-8.55-8.7,9.03v5.55c0,1.33,1.08,2.43,2.43,2.43h40.13c1.33,0,2.43-1.08,2.43-2.43v-5.55l-8.7-9.03-9.93,8.55Z"/>
  <polygon fill='hsla(0deg, 0%, 80%, 0.25)' points="47.5 28.45 47.5 17.41 41.7 22.42 47.5 28.45"/>
  <polygon fill='hsla(0deg, 0%, 80%, 0.25)' points="2.52 17.43 2.52 28.46 8.33 22.42 2.52 17.41 2.52 17.43"/>
  <path fill='hsla(0deg, 0%, 80%, 0.25)' d="m47.48,10.51c0-1.35-1.08-2.43-2.43-2.43H4.93c-1.33,0-2.43,1.08-2.43,2.43v2.43l21.22,18.28c.69.58,1.89.58,2.56,0l21.22-18.28h-.02v-2.43Z"/>
</svg>